REM DIRINDEX 1\2\3,1\2\4,1\2\5,1\2\6
REM DIRNAME cjc157,folder01,folder02,folder03,folder04,folder05
TITLE ""
FILE "028 028.mp3" MP3
  TRACK 01 AUDIO
    TITLE "0:"
    INDEX 01 00:00:00
  TRACK 02 AUDIO
    TITLE "3:cjc157_1049"
    INDEX 01 00:00:11
  TRACK 03 AUDIO
    TITLE "0:"
    INDEX 01 00:01:22
  TRACK 04 AUDIO
    TITLE "4:cjc157_1050"
    INDEX 01 00:01:68
  TRACK 05 AUDIO
    TITLE "0:"
    INDEX 01 00:02:65
  TRACK 06 AUDIO
    TITLE "5:cjc157_1051"
    INDEX 01 00:03:37
  TRACK 07 AUDIO
    TITLE "0:"
    INDEX 01 00:07:23
  TRACK 08 AUDIO
    TITLE "5:cjc157_1052"
    INDEX 01 00:07:72
  TRACK 09 AUDIO
    TITLE "0:"
    INDEX 01 00:09:73
  TRACK 10 AUDIO
    TITLE "3:cjc157_1053"
    INDEX 01 00:10:41
  TRACK 11 AUDIO
    TITLE "0:"
    INDEX 01 00:11:68
  TRACK 12 AUDIO
    TITLE "4:cjc157_1054"
    INDEX 01 00:12:38
  TRACK 13 AUDIO
    TITLE "0:"
    INDEX 01 00:13:49
  TRACK 14 AUDIO
    TITLE "5:cjc157_1055"
    INDEX 01 00:14:21
  TRACK 15 AUDIO
    TITLE "0:"
    INDEX 01 00:17:35
  TRACK 16 AUDIO
    TITLE "3:cjc157_1056"
    INDEX 01 00:18:05
  TRACK 17 AUDIO
    TITLE "0:"
    INDEX 01 00:19:26
  TRACK 18 AUDIO
    TITLE "4:cjc157_1057"
    INDEX 01 00:19:73
  TRACK 19 AUDIO
    TITLE "0:"
    INDEX 01 00:21:08
  TRACK 20 AUDIO
    TITLE "5:cjc157_1058"
    INDEX 01 00:21:49
  TRACK 21 AUDIO
    TITLE "0:"
    INDEX 01 00:24:69
  TRACK 22 AUDIO
    TITLE "5:cjc157_1059"
    INDEX 01 00:25:39
  TRACK 23 AUDIO
    TITLE "0:"
    INDEX 01 00:28:31
  TRACK 24 AUDIO
    TITLE "3:cjc157_1060"
    INDEX 01 00:28:72
  TRACK 25 AUDIO
    TITLE "0:"
    INDEX 01 00:30:18
  TRACK 26 AUDIO
    TITLE "4:cjc157_1061"
    INDEX 01 00:30:63
  TRACK 27 AUDIO
    TITLE "0:"
    INDEX 01 00:32:11
  TRACK 28 AUDIO
    TITLE "5:cjc157_1062"
    INDEX 01 00:32:52
  TRACK 29 AUDIO
    TITLE "0:"
    INDEX 01 00:34:36
  TRACK 30 AUDIO
    TITLE "5:cjc157_1063"
    INDEX 01 00:35:04
  TRACK 31 AUDIO
    TITLE "0:"
    INDEX 01 00:38:45
  TRACK 32 AUDIO
    TITLE "3:cjc157_1064"
    INDEX 01 00:39:15
  TRACK 33 AUDIO
    TITLE "0:"
    INDEX 01 00:40:66
  TRACK 34 AUDIO
    TITLE "4:cjc157_1065"
    INDEX 01 00:41:36
  TRACK 35 AUDIO
    TITLE "0:"
    INDEX 01 00:42:57
  TRACK 36 AUDIO
    TITLE "5:cjc157_1066"
    INDEX 01 00:43:27
  TRACK 37 AUDIO
    TITLE "0:"
    INDEX 01 00:45:71
  TRACK 38 AUDIO
    TITLE "3:cjc157_1067"
    INDEX 01 00:46:41
  TRACK 39 AUDIO
    TITLE "0:"
    INDEX 01 00:48:20
  TRACK 40 AUDIO
    TITLE "4:cjc157_1068"
    INDEX 01 00:48:65
  TRACK 41 AUDIO
    TITLE "0:"
    INDEX 01 00:50:21
  TRACK 42 AUDIO
    TITLE "5:cjc157_1069"
    INDEX 01 00:50:70
  TRACK 43 AUDIO
    TITLE "0:"
    INDEX 01 00:53:25
  TRACK 44 AUDIO
    TITLE "5:cjc157_1070"
    INDEX 01 00:53:70
  TRACK 45 AUDIO
    TITLE "0:"
    INDEX 01 00:56:63
  TRACK 46 AUDIO
    TITLE "3:cjc157_1071"
    INDEX 01 00:57:33
  TRACK 47 AUDIO
    TITLE "0:"
    INDEX 01 00:59:12
  TRACK 48 AUDIO
    TITLE "4:cjc157_1072"
    INDEX 01 00:59:59
  TRACK 49 AUDIO
    TITLE "0:"
    INDEX 01 01:00:57
  TRACK 50 AUDIO
    TITLE "5:cjc157_1073"
    INDEX 01 01:01:33
  TRACK 51 AUDIO
    TITLE "0:"
    INDEX 01 01:04:00
  TRACK 52 AUDIO
    TITLE "3:cjc157_1074"
    INDEX 01 01:04:45
  TRACK 53 AUDIO
    TITLE "0:"
    INDEX 01 01:05:69
  TRACK 54 AUDIO
    TITLE "4:cjc157_1075"
    INDEX 01 01:06:43
  TRACK 55 AUDIO
    TITLE "0:"
    INDEX 01 01:07:55
  TRACK 56 AUDIO
    TITLE "5:cjc157_1076"
    INDEX 01 01:08:25
  TRACK 57 AUDIO
    TITLE "0:"
    INDEX 01 01:11:00
  TRACK 58 AUDIO
    TITLE "5:cjc157_1077"
    INDEX 01 01:11:51
  TRACK 59 AUDIO
    TITLE "0:"
    INDEX 01 01:15:01
  TRACK 60 AUDIO
    TITLE "3:cjc157_1078"
    INDEX 01 01:15:54
  TRACK 61 AUDIO
    TITLE "0:"
    INDEX 01 01:17:16
  TRACK 62 AUDIO
    TITLE "4:cjc157_1079"
    INDEX 01 01:17:61
  TRACK 63 AUDIO
    TITLE "0:"
    INDEX 01 01:18:70
  TRACK 64 AUDIO
    TITLE "5:cjc157_1080"
    INDEX 01 01:19:42
  TRACK 65 AUDIO
    TITLE "0:"
    INDEX 01 01:22:03
  TRACK 66 AUDIO
    TITLE "3:cjc157_1081"
    INDEX 01 01:22:52
  TRACK 67 AUDIO
    TITLE "0:"
    INDEX 01 01:24:36
  TRACK 68 AUDIO
    TITLE "4:cjc157_1082"
    INDEX 01 01:25:00
  TRACK 69 AUDIO
    TITLE "0:"
    INDEX 01 01:26:09
  TRACK 70 AUDIO
    TITLE "5:cjc157_1083"
    INDEX 01 01:26:50
  TRACK 71 AUDIO
    TITLE "0:"
    INDEX 01 01:29:68
